<mxfile host="app.diagrams.net" agent="Mozilla/5.0 (Windows NT 10.0; Win64; x64) AppleWebKit/537.36 (KHTML, like Gecko) Chrome/126.0.0.0 Safari/537.36 Edg/126.0.0.0" version="28.1.2">
  <diagram name="Page-1" id="jSjBeTgxp149Q0DbQiK0">
    <mxGraphModel dx="2678" dy="1028" grid="1" gridSize="10" guides="1" tooltips="1" connect="1" arrows="1" fold="1" page="1" pageScale="1" pageWidth="850" pageHeight="1100" math="0" shadow="0">
      <root>
        <mxCell id="0" />
        <mxCell id="1" parent="0" />
        <mxCell id="DQoFBdJlBpGmH9ihwqAg-1" value="Process A" style="rounded=0;whiteSpace=wrap;html=1;fillColor=#0050ef;fontColor=#ffffff;strokeColor=#001DBC;" parent="1" vertex="1">
          <mxGeometry x="320" y="80" width="200" height="40" as="geometry" />
        </mxCell>
        <mxCell id="DQoFBdJlBpGmH9ihwqAg-2" value="" style="rounded=0;whiteSpace=wrap;html=1;fillColor=#0050ef;fontColor=#ffffff;strokeColor=#001DBC;" parent="1" vertex="1">
          <mxGeometry x="320" y="120" width="200" height="80" as="geometry" />
        </mxCell>
        <mxCell id="DQoFBdJlBpGmH9ihwqAg-4" value="&lt;font style=&quot;color: light-dark(rgb(0, 0, 0), rgb(0, 0, 255));&quot;&gt;next&lt;/font&gt;" style="shape=partialRectangle;whiteSpace=wrap;html=1;left=0;right=0;fillColor=#0050ef;strokeColor=#001DBC;fontColor=#ffffff;" parent="1" vertex="1">
          <mxGeometry x="320" y="240" width="100" height="40" as="geometry" />
        </mxCell>
        <mxCell id="DQoFBdJlBpGmH9ihwqAg-5" value="" style="line;strokeWidth=1;direction=south;html=1;" parent="1" vertex="1">
          <mxGeometry x="310" y="240" width="20" height="40" as="geometry" />
        </mxCell>
        <mxCell id="DQoFBdJlBpGmH9ihwqAg-7" value="" style="line;strokeWidth=1;direction=south;html=1;dashed=1;" parent="1" vertex="1">
          <mxGeometry x="410" y="240" width="20" height="40" as="geometry" />
        </mxCell>
        <mxCell id="DQoFBdJlBpGmH9ihwqAg-8" value="&lt;font style=&quot;color: light-dark(rgb(0, 0, 0), rgb(0, 0, 255));&quot;&gt;prev&lt;/font&gt;" style="shape=partialRectangle;whiteSpace=wrap;html=1;left=0;right=0;fillColor=#0050ef;fontColor=#ffffff;strokeColor=#001DBC;" parent="1" vertex="1">
          <mxGeometry x="420" y="240" width="100" height="40" as="geometry" />
        </mxCell>
        <mxCell id="DQoFBdJlBpGmH9ihwqAg-9" value="" style="line;strokeWidth=1;direction=south;html=1;" parent="1" vertex="1">
          <mxGeometry x="510" y="240" width="20" height="40" as="geometry" />
        </mxCell>
        <mxCell id="DQoFBdJlBpGmH9ihwqAg-10" value="&lt;font style=&quot;color: light-dark(rgb(0, 0, 0), rgb(255, 255, 255));&quot;&gt;tasks&lt;/font&gt;" style="text;html=1;align=center;verticalAlign=middle;whiteSpace=wrap;rounded=0;" parent="1" vertex="1">
          <mxGeometry x="390" y="245" width="60" height="30" as="geometry" />
        </mxCell>
        <mxCell id="DQoFBdJlBpGmH9ihwqAg-11" value="&lt;font style=&quot;color: light-dark(rgb(0, 0, 0), rgb(0, 255, 0));&quot;&gt;next&lt;/font&gt;" style="shape=partialRectangle;whiteSpace=wrap;html=1;left=0;right=0;fillColor=#0050ef;fontColor=#ffffff;strokeColor=#001DBC;" parent="1" vertex="1">
          <mxGeometry x="320" y="280" width="100" height="40" as="geometry" />
        </mxCell>
        <mxCell id="DQoFBdJlBpGmH9ihwqAg-12" value="" style="line;strokeWidth=1;direction=south;html=1;" parent="1" vertex="1">
          <mxGeometry x="310" y="280" width="20" height="40" as="geometry" />
        </mxCell>
        <mxCell id="DQoFBdJlBpGmH9ihwqAg-13" value="" style="line;strokeWidth=1;direction=south;html=1;dashed=1;" parent="1" vertex="1">
          <mxGeometry x="410" y="280" width="20" height="40" as="geometry" />
        </mxCell>
        <mxCell id="DQoFBdJlBpGmH9ihwqAg-14" value="&lt;font style=&quot;color: light-dark(rgb(0, 0, 0), rgb(0, 255, 0));&quot;&gt;prev&lt;/font&gt;" style="shape=partialRectangle;whiteSpace=wrap;html=1;left=0;right=0;fillColor=#0050ef;fontColor=#ffffff;strokeColor=#001DBC;" parent="1" vertex="1">
          <mxGeometry x="420" y="280" width="100" height="40" as="geometry" />
        </mxCell>
        <mxCell id="DQoFBdJlBpGmH9ihwqAg-15" value="" style="line;strokeWidth=1;direction=south;html=1;" parent="1" vertex="1">
          <mxGeometry x="510" y="280" width="20" height="40" as="geometry" />
        </mxCell>
        <mxCell id="DQoFBdJlBpGmH9ihwqAg-16" value="children" style="text;html=1;align=center;verticalAlign=middle;whiteSpace=wrap;rounded=0;" parent="1" vertex="1">
          <mxGeometry x="390" y="285" width="60" height="30" as="geometry" />
        </mxCell>
        <mxCell id="DQoFBdJlBpGmH9ihwqAg-27" value="&lt;font style=&quot;color: light-dark(rgb(0, 0, 0), rgb(127, 0, 255));&quot;&gt;next&lt;/font&gt;" style="shape=partialRectangle;whiteSpace=wrap;html=1;left=0;right=0;fillColor=#0050ef;fontColor=#ffffff;strokeColor=#001DBC;" parent="1" vertex="1">
          <mxGeometry x="320" y="320" width="100" height="40" as="geometry" />
        </mxCell>
        <mxCell id="DQoFBdJlBpGmH9ihwqAg-28" value="" style="line;strokeWidth=1;direction=south;html=1;" parent="1" vertex="1">
          <mxGeometry x="310" y="320" width="20" height="40" as="geometry" />
        </mxCell>
        <mxCell id="DQoFBdJlBpGmH9ihwqAg-29" value="" style="line;strokeWidth=1;direction=south;html=1;dashed=1;" parent="1" vertex="1">
          <mxGeometry x="410" y="320" width="20" height="40" as="geometry" />
        </mxCell>
        <mxCell id="DQoFBdJlBpGmH9ihwqAg-30" value="&lt;font style=&quot;color: light-dark(rgb(0, 0, 0), rgb(127, 0, 255));&quot;&gt;prev&lt;/font&gt;" style="shape=partialRectangle;whiteSpace=wrap;html=1;left=0;right=0;fillColor=#0050ef;fontColor=#ffffff;strokeColor=#001DBC;" parent="1" vertex="1">
          <mxGeometry x="420" y="320" width="100" height="40" as="geometry" />
        </mxCell>
        <mxCell id="DQoFBdJlBpGmH9ihwqAg-31" value="" style="line;strokeWidth=1;direction=south;html=1;" parent="1" vertex="1">
          <mxGeometry x="510" y="320" width="20" height="40" as="geometry" />
        </mxCell>
        <mxCell id="DQoFBdJlBpGmH9ihwqAg-32" value="sibling" style="text;html=1;align=center;verticalAlign=middle;whiteSpace=wrap;rounded=0;" parent="1" vertex="1">
          <mxGeometry x="390" y="325" width="60" height="30" as="geometry" />
        </mxCell>
        <mxCell id="DQoFBdJlBpGmH9ihwqAg-33" value="&lt;font style=&quot;color: light-dark(rgb(0, 0, 0), rgb(204, 0, 0));&quot;&gt;*parent&lt;/font&gt;" style="rounded=0;whiteSpace=wrap;html=1;fillColor=#0050ef;fontColor=#ffffff;strokeColor=#001DBC;" parent="1" vertex="1">
          <mxGeometry x="320" y="200" width="200" height="40" as="geometry" />
        </mxCell>
        <mxCell id="Pr255XUGISF5RP6_E8v_-1" value="Process C" style="rounded=0;whiteSpace=wrap;html=1;fillColor=#0050ef;fontColor=#ffffff;strokeColor=#001DBC;" vertex="1" parent="1">
          <mxGeometry x="320" y="520" width="200" height="40" as="geometry" />
        </mxCell>
        <mxCell id="Pr255XUGISF5RP6_E8v_-2" value="" style="rounded=0;whiteSpace=wrap;html=1;fillColor=#0050ef;fontColor=#ffffff;strokeColor=#001DBC;" vertex="1" parent="1">
          <mxGeometry x="320" y="560" width="200" height="80" as="geometry" />
        </mxCell>
        <mxCell id="Pr255XUGISF5RP6_E8v_-3" value="&lt;font style=&quot;color: light-dark(rgb(0, 0, 0), rgb(0, 0, 255));&quot;&gt;next&lt;/font&gt;" style="shape=partialRectangle;whiteSpace=wrap;html=1;left=0;right=0;fillColor=#0050ef;strokeColor=#001DBC;fontColor=#ffffff;" vertex="1" parent="1">
          <mxGeometry x="320" y="680" width="100" height="40" as="geometry" />
        </mxCell>
        <mxCell id="Pr255XUGISF5RP6_E8v_-4" value="" style="line;strokeWidth=1;direction=south;html=1;" vertex="1" parent="1">
          <mxGeometry x="310" y="680" width="20" height="40" as="geometry" />
        </mxCell>
        <mxCell id="Pr255XUGISF5RP6_E8v_-5" value="" style="line;strokeWidth=1;direction=south;html=1;dashed=1;" vertex="1" parent="1">
          <mxGeometry x="410" y="680" width="20" height="40" as="geometry" />
        </mxCell>
        <mxCell id="Pr255XUGISF5RP6_E8v_-6" value="&lt;font style=&quot;color: light-dark(rgb(0, 0, 0), rgb(0, 0, 255));&quot;&gt;prev&lt;/font&gt;" style="shape=partialRectangle;whiteSpace=wrap;html=1;left=0;right=0;fillColor=#0050ef;fontColor=#ffffff;strokeColor=#001DBC;" vertex="1" parent="1">
          <mxGeometry x="420" y="680" width="100" height="40" as="geometry" />
        </mxCell>
        <mxCell id="Pr255XUGISF5RP6_E8v_-7" value="" style="line;strokeWidth=1;direction=south;html=1;" vertex="1" parent="1">
          <mxGeometry x="510" y="680" width="20" height="40" as="geometry" />
        </mxCell>
        <mxCell id="Pr255XUGISF5RP6_E8v_-8" value="&lt;font style=&quot;color: light-dark(rgb(0, 0, 0), rgb(255, 255, 255));&quot;&gt;tasks&lt;/font&gt;" style="text;html=1;align=center;verticalAlign=middle;whiteSpace=wrap;rounded=0;" vertex="1" parent="1">
          <mxGeometry x="390" y="685" width="60" height="30" as="geometry" />
        </mxCell>
        <mxCell id="Pr255XUGISF5RP6_E8v_-9" value="&lt;font style=&quot;color: light-dark(rgb(0, 0, 0), rgb(0, 255, 0));&quot;&gt;next&lt;/font&gt;" style="shape=partialRectangle;whiteSpace=wrap;html=1;left=0;right=0;fillColor=#0050ef;fontColor=#ffffff;strokeColor=#001DBC;" vertex="1" parent="1">
          <mxGeometry x="320" y="720" width="100" height="40" as="geometry" />
        </mxCell>
        <mxCell id="Pr255XUGISF5RP6_E8v_-10" value="" style="line;strokeWidth=1;direction=south;html=1;" vertex="1" parent="1">
          <mxGeometry x="310" y="720" width="20" height="40" as="geometry" />
        </mxCell>
        <mxCell id="Pr255XUGISF5RP6_E8v_-11" value="" style="line;strokeWidth=1;direction=south;html=1;dashed=1;" vertex="1" parent="1">
          <mxGeometry x="410" y="720" width="20" height="40" as="geometry" />
        </mxCell>
        <mxCell id="Pr255XUGISF5RP6_E8v_-12" value="&lt;font style=&quot;color: light-dark(rgb(0, 0, 0), rgb(0, 255, 0));&quot;&gt;prev&lt;/font&gt;" style="shape=partialRectangle;whiteSpace=wrap;html=1;left=0;right=0;fillColor=#0050ef;fontColor=#ffffff;strokeColor=#001DBC;" vertex="1" parent="1">
          <mxGeometry x="420" y="720" width="100" height="40" as="geometry" />
        </mxCell>
        <mxCell id="Pr255XUGISF5RP6_E8v_-13" value="" style="line;strokeWidth=1;direction=south;html=1;" vertex="1" parent="1">
          <mxGeometry x="510" y="720" width="20" height="40" as="geometry" />
        </mxCell>
        <mxCell id="Pr255XUGISF5RP6_E8v_-14" value="children" style="text;html=1;align=center;verticalAlign=middle;whiteSpace=wrap;rounded=0;" vertex="1" parent="1">
          <mxGeometry x="390" y="725" width="60" height="30" as="geometry" />
        </mxCell>
        <mxCell id="Pr255XUGISF5RP6_E8v_-15" value="&lt;font style=&quot;color: light-dark(rgb(0, 0, 0), rgb(127, 0, 255));&quot;&gt;next&lt;/font&gt;" style="shape=partialRectangle;whiteSpace=wrap;html=1;left=0;right=0;fillColor=#0050ef;fontColor=#ffffff;strokeColor=#001DBC;" vertex="1" parent="1">
          <mxGeometry x="320" y="760" width="100" height="40" as="geometry" />
        </mxCell>
        <mxCell id="Pr255XUGISF5RP6_E8v_-16" value="" style="line;strokeWidth=1;direction=south;html=1;" vertex="1" parent="1">
          <mxGeometry x="310" y="760" width="20" height="40" as="geometry" />
        </mxCell>
        <mxCell id="Pr255XUGISF5RP6_E8v_-17" value="" style="line;strokeWidth=1;direction=south;html=1;dashed=1;" vertex="1" parent="1">
          <mxGeometry x="410" y="760" width="20" height="40" as="geometry" />
        </mxCell>
        <mxCell id="Pr255XUGISF5RP6_E8v_-18" value="&lt;font style=&quot;color: light-dark(rgb(0, 0, 0), rgb(127, 0, 255));&quot;&gt;prev&lt;/font&gt;" style="shape=partialRectangle;whiteSpace=wrap;html=1;left=0;right=0;fillColor=#0050ef;fontColor=#ffffff;strokeColor=#001DBC;" vertex="1" parent="1">
          <mxGeometry x="420" y="760" width="100" height="40" as="geometry" />
        </mxCell>
        <mxCell id="Pr255XUGISF5RP6_E8v_-19" value="" style="line;strokeWidth=1;direction=south;html=1;" vertex="1" parent="1">
          <mxGeometry x="510" y="760" width="20" height="40" as="geometry" />
        </mxCell>
        <mxCell id="Pr255XUGISF5RP6_E8v_-20" value="sibling" style="text;html=1;align=center;verticalAlign=middle;whiteSpace=wrap;rounded=0;" vertex="1" parent="1">
          <mxGeometry x="390" y="765" width="60" height="30" as="geometry" />
        </mxCell>
        <mxCell id="Pr255XUGISF5RP6_E8v_-21" value="&lt;font style=&quot;color: light-dark(rgb(0, 0, 0), rgb(204, 0, 0));&quot;&gt;*parent&lt;/font&gt;" style="rounded=0;whiteSpace=wrap;html=1;fillColor=#0050ef;fontColor=#ffffff;strokeColor=#001DBC;" vertex="1" parent="1">
          <mxGeometry x="320" y="640" width="200" height="40" as="geometry" />
        </mxCell>
        <mxCell id="Pr255XUGISF5RP6_E8v_-22" value="Process D" style="rounded=0;whiteSpace=wrap;html=1;fillColor=#0050ef;fontColor=#ffffff;strokeColor=#001DBC;" vertex="1" parent="1">
          <mxGeometry x="680" y="520" width="200" height="40" as="geometry" />
        </mxCell>
        <mxCell id="Pr255XUGISF5RP6_E8v_-23" value="" style="rounded=0;whiteSpace=wrap;html=1;fillColor=#0050ef;fontColor=#ffffff;strokeColor=#001DBC;" vertex="1" parent="1">
          <mxGeometry x="680" y="560" width="200" height="80" as="geometry" />
        </mxCell>
        <mxCell id="Pr255XUGISF5RP6_E8v_-24" value="&lt;font style=&quot;color: light-dark(rgb(0, 0, 0), rgb(0, 0, 255));&quot;&gt;next&lt;/font&gt;" style="shape=partialRectangle;whiteSpace=wrap;html=1;left=0;right=0;fillColor=#0050ef;strokeColor=#001DBC;fontColor=#ffffff;" vertex="1" parent="1">
          <mxGeometry x="680" y="680" width="100" height="40" as="geometry" />
        </mxCell>
        <mxCell id="Pr255XUGISF5RP6_E8v_-25" value="" style="line;strokeWidth=1;direction=south;html=1;" vertex="1" parent="1">
          <mxGeometry x="670" y="680" width="20" height="40" as="geometry" />
        </mxCell>
        <mxCell id="Pr255XUGISF5RP6_E8v_-26" value="" style="line;strokeWidth=1;direction=south;html=1;dashed=1;" vertex="1" parent="1">
          <mxGeometry x="770" y="680" width="20" height="40" as="geometry" />
        </mxCell>
        <mxCell id="Pr255XUGISF5RP6_E8v_-27" value="&lt;font style=&quot;color: light-dark(rgb(0, 0, 0), rgb(0, 0, 255));&quot;&gt;prev&lt;/font&gt;" style="shape=partialRectangle;whiteSpace=wrap;html=1;left=0;right=0;fillColor=#0050ef;fontColor=#ffffff;strokeColor=#001DBC;" vertex="1" parent="1">
          <mxGeometry x="780" y="680" width="100" height="40" as="geometry" />
        </mxCell>
        <mxCell id="Pr255XUGISF5RP6_E8v_-28" value="" style="line;strokeWidth=1;direction=south;html=1;" vertex="1" parent="1">
          <mxGeometry x="870" y="680" width="20" height="40" as="geometry" />
        </mxCell>
        <mxCell id="Pr255XUGISF5RP6_E8v_-29" value="&lt;font style=&quot;color: light-dark(rgb(0, 0, 0), rgb(255, 255, 255));&quot;&gt;tasks&lt;/font&gt;" style="text;html=1;align=center;verticalAlign=middle;whiteSpace=wrap;rounded=0;" vertex="1" parent="1">
          <mxGeometry x="750" y="685" width="60" height="30" as="geometry" />
        </mxCell>
        <mxCell id="Pr255XUGISF5RP6_E8v_-30" value="&lt;font style=&quot;color: light-dark(rgb(0, 0, 0), rgb(0, 255, 0));&quot;&gt;next&lt;/font&gt;" style="shape=partialRectangle;whiteSpace=wrap;html=1;left=0;right=0;fillColor=#0050ef;fontColor=#ffffff;strokeColor=#001DBC;" vertex="1" parent="1">
          <mxGeometry x="680" y="720" width="100" height="40" as="geometry" />
        </mxCell>
        <mxCell id="Pr255XUGISF5RP6_E8v_-31" value="" style="line;strokeWidth=1;direction=south;html=1;" vertex="1" parent="1">
          <mxGeometry x="670" y="720" width="20" height="40" as="geometry" />
        </mxCell>
        <mxCell id="Pr255XUGISF5RP6_E8v_-32" value="" style="line;strokeWidth=1;direction=south;html=1;dashed=1;" vertex="1" parent="1">
          <mxGeometry x="770" y="720" width="20" height="40" as="geometry" />
        </mxCell>
        <mxCell id="Pr255XUGISF5RP6_E8v_-33" value="&lt;font style=&quot;color: light-dark(rgb(0, 0, 0), rgb(0, 255, 0));&quot;&gt;prev&lt;/font&gt;" style="shape=partialRectangle;whiteSpace=wrap;html=1;left=0;right=0;fillColor=#0050ef;fontColor=#ffffff;strokeColor=#001DBC;" vertex="1" parent="1">
          <mxGeometry x="780" y="720" width="100" height="40" as="geometry" />
        </mxCell>
        <mxCell id="Pr255XUGISF5RP6_E8v_-34" value="" style="line;strokeWidth=1;direction=south;html=1;" vertex="1" parent="1">
          <mxGeometry x="870" y="720" width="20" height="40" as="geometry" />
        </mxCell>
        <mxCell id="Pr255XUGISF5RP6_E8v_-35" value="children" style="text;html=1;align=center;verticalAlign=middle;whiteSpace=wrap;rounded=0;" vertex="1" parent="1">
          <mxGeometry x="750" y="725" width="60" height="30" as="geometry" />
        </mxCell>
        <mxCell id="Pr255XUGISF5RP6_E8v_-36" value="&lt;font style=&quot;color: light-dark(rgb(0, 0, 0), rgb(127, 0, 255));&quot;&gt;next&lt;/font&gt;" style="shape=partialRectangle;whiteSpace=wrap;html=1;left=0;right=0;fillColor=#0050ef;fontColor=#ffffff;strokeColor=#001DBC;" vertex="1" parent="1">
          <mxGeometry x="680" y="760" width="100" height="40" as="geometry" />
        </mxCell>
        <mxCell id="Pr255XUGISF5RP6_E8v_-37" value="" style="line;strokeWidth=1;direction=south;html=1;" vertex="1" parent="1">
          <mxGeometry x="670" y="760" width="20" height="40" as="geometry" />
        </mxCell>
        <mxCell id="Pr255XUGISF5RP6_E8v_-38" value="" style="line;strokeWidth=1;direction=south;html=1;dashed=1;" vertex="1" parent="1">
          <mxGeometry x="770" y="760" width="20" height="40" as="geometry" />
        </mxCell>
        <mxCell id="Pr255XUGISF5RP6_E8v_-39" value="&lt;font style=&quot;color: light-dark(rgb(0, 0, 0), rgb(127, 0, 255));&quot;&gt;prev&lt;/font&gt;" style="shape=partialRectangle;whiteSpace=wrap;html=1;left=0;right=0;fillColor=#0050ef;fontColor=#ffffff;strokeColor=#001DBC;" vertex="1" parent="1">
          <mxGeometry x="780" y="760" width="100" height="40" as="geometry" />
        </mxCell>
        <mxCell id="Pr255XUGISF5RP6_E8v_-40" value="" style="line;strokeWidth=1;direction=south;html=1;" vertex="1" parent="1">
          <mxGeometry x="870" y="760" width="20" height="40" as="geometry" />
        </mxCell>
        <mxCell id="Pr255XUGISF5RP6_E8v_-41" value="sibling" style="text;html=1;align=center;verticalAlign=middle;whiteSpace=wrap;rounded=0;" vertex="1" parent="1">
          <mxGeometry x="750" y="765" width="60" height="30" as="geometry" />
        </mxCell>
        <mxCell id="Pr255XUGISF5RP6_E8v_-42" value="&lt;font style=&quot;color: light-dark(rgb(0, 0, 0), rgb(204, 0, 0));&quot;&gt;*parent&lt;/font&gt;" style="rounded=0;whiteSpace=wrap;html=1;fillColor=#0050ef;fontColor=#ffffff;strokeColor=#001DBC;" vertex="1" parent="1">
          <mxGeometry x="680" y="640" width="200" height="40" as="geometry" />
        </mxCell>
        <mxCell id="Pr255XUGISF5RP6_E8v_-43" value="Process B" style="rounded=0;whiteSpace=wrap;html=1;fillColor=#0050ef;fontColor=#ffffff;strokeColor=#001DBC;" vertex="1" parent="1">
          <mxGeometry x="-40" y="520" width="200" height="40" as="geometry" />
        </mxCell>
        <mxCell id="Pr255XUGISF5RP6_E8v_-44" value="" style="rounded=0;whiteSpace=wrap;html=1;fillColor=#0050ef;fontColor=#ffffff;strokeColor=#001DBC;" vertex="1" parent="1">
          <mxGeometry x="-40" y="560" width="200" height="80" as="geometry" />
        </mxCell>
        <mxCell id="Pr255XUGISF5RP6_E8v_-45" value="&lt;font style=&quot;color: light-dark(rgb(0, 0, 0), rgb(0, 0, 255));&quot;&gt;next&lt;/font&gt;" style="shape=partialRectangle;whiteSpace=wrap;html=1;left=0;right=0;fillColor=#0050ef;strokeColor=#001DBC;fontColor=#ffffff;" vertex="1" parent="1">
          <mxGeometry x="-40" y="680" width="100" height="40" as="geometry" />
        </mxCell>
        <mxCell id="Pr255XUGISF5RP6_E8v_-46" value="" style="line;strokeWidth=1;direction=south;html=1;" vertex="1" parent="1">
          <mxGeometry x="-50" y="680" width="20" height="40" as="geometry" />
        </mxCell>
        <mxCell id="Pr255XUGISF5RP6_E8v_-47" value="" style="line;strokeWidth=1;direction=south;html=1;dashed=1;" vertex="1" parent="1">
          <mxGeometry x="50" y="680" width="20" height="40" as="geometry" />
        </mxCell>
        <mxCell id="Pr255XUGISF5RP6_E8v_-48" value="&lt;font style=&quot;color: light-dark(rgb(0, 0, 0), rgb(0, 0, 255));&quot;&gt;prev&lt;/font&gt;" style="shape=partialRectangle;whiteSpace=wrap;html=1;left=0;right=0;fillColor=#0050ef;fontColor=#ffffff;strokeColor=#001DBC;" vertex="1" parent="1">
          <mxGeometry x="60" y="680" width="100" height="40" as="geometry" />
        </mxCell>
        <mxCell id="Pr255XUGISF5RP6_E8v_-49" value="" style="line;strokeWidth=1;direction=south;html=1;" vertex="1" parent="1">
          <mxGeometry x="150" y="680" width="20" height="40" as="geometry" />
        </mxCell>
        <mxCell id="Pr255XUGISF5RP6_E8v_-50" value="&lt;font style=&quot;color: light-dark(rgb(0, 0, 0), rgb(255, 255, 255));&quot;&gt;tasks&lt;/font&gt;" style="text;html=1;align=center;verticalAlign=middle;whiteSpace=wrap;rounded=0;" vertex="1" parent="1">
          <mxGeometry x="30" y="685" width="60" height="30" as="geometry" />
        </mxCell>
        <mxCell id="Pr255XUGISF5RP6_E8v_-51" value="&lt;font style=&quot;color: light-dark(rgb(0, 0, 0), rgb(0, 255, 0));&quot;&gt;next&lt;/font&gt;" style="shape=partialRectangle;whiteSpace=wrap;html=1;left=0;right=0;fillColor=#0050ef;fontColor=#ffffff;strokeColor=#001DBC;" vertex="1" parent="1">
          <mxGeometry x="-40" y="720" width="100" height="40" as="geometry" />
        </mxCell>
        <mxCell id="Pr255XUGISF5RP6_E8v_-52" value="" style="line;strokeWidth=1;direction=south;html=1;" vertex="1" parent="1">
          <mxGeometry x="-50" y="720" width="20" height="40" as="geometry" />
        </mxCell>
        <mxCell id="Pr255XUGISF5RP6_E8v_-53" value="" style="line;strokeWidth=1;direction=south;html=1;dashed=1;" vertex="1" parent="1">
          <mxGeometry x="50" y="720" width="20" height="40" as="geometry" />
        </mxCell>
        <mxCell id="Pr255XUGISF5RP6_E8v_-54" value="&lt;font style=&quot;color: light-dark(rgb(0, 0, 0), rgb(0, 255, 0));&quot;&gt;prev&lt;/font&gt;" style="shape=partialRectangle;whiteSpace=wrap;html=1;left=0;right=0;fillColor=#0050ef;fontColor=#ffffff;strokeColor=#001DBC;" vertex="1" parent="1">
          <mxGeometry x="60" y="720" width="100" height="40" as="geometry" />
        </mxCell>
        <mxCell id="Pr255XUGISF5RP6_E8v_-55" value="" style="line;strokeWidth=1;direction=south;html=1;" vertex="1" parent="1">
          <mxGeometry x="150" y="720" width="20" height="40" as="geometry" />
        </mxCell>
        <mxCell id="Pr255XUGISF5RP6_E8v_-56" value="children" style="text;html=1;align=center;verticalAlign=middle;whiteSpace=wrap;rounded=0;" vertex="1" parent="1">
          <mxGeometry x="30" y="725" width="60" height="30" as="geometry" />
        </mxCell>
        <mxCell id="Pr255XUGISF5RP6_E8v_-57" value="&lt;font style=&quot;color: light-dark(rgb(0, 0, 0), rgb(127, 0, 255));&quot;&gt;next&lt;/font&gt;" style="shape=partialRectangle;whiteSpace=wrap;html=1;left=0;right=0;fillColor=#0050ef;fontColor=#ffffff;strokeColor=#001DBC;" vertex="1" parent="1">
          <mxGeometry x="-40" y="760" width="100" height="40" as="geometry" />
        </mxCell>
        <mxCell id="Pr255XUGISF5RP6_E8v_-58" value="" style="line;strokeWidth=1;direction=south;html=1;" vertex="1" parent="1">
          <mxGeometry x="-50" y="760" width="20" height="40" as="geometry" />
        </mxCell>
        <mxCell id="Pr255XUGISF5RP6_E8v_-59" value="" style="line;strokeWidth=1;direction=south;html=1;dashed=1;" vertex="1" parent="1">
          <mxGeometry x="50" y="760" width="20" height="40" as="geometry" />
        </mxCell>
        <mxCell id="Pr255XUGISF5RP6_E8v_-60" value="&lt;font style=&quot;color: light-dark(rgb(0, 0, 0), rgb(127, 0, 255));&quot;&gt;prev&lt;/font&gt;" style="shape=partialRectangle;whiteSpace=wrap;html=1;left=0;right=0;fillColor=#0050ef;fontColor=#ffffff;strokeColor=#001DBC;" vertex="1" parent="1">
          <mxGeometry x="60" y="760" width="100" height="40" as="geometry" />
        </mxCell>
        <mxCell id="Pr255XUGISF5RP6_E8v_-61" value="" style="line;strokeWidth=1;direction=south;html=1;" vertex="1" parent="1">
          <mxGeometry x="150" y="760" width="20" height="40" as="geometry" />
        </mxCell>
        <mxCell id="Pr255XUGISF5RP6_E8v_-62" value="sibling" style="text;html=1;align=center;verticalAlign=middle;whiteSpace=wrap;rounded=0;" vertex="1" parent="1">
          <mxGeometry x="30" y="765" width="60" height="30" as="geometry" />
        </mxCell>
        <mxCell id="Pr255XUGISF5RP6_E8v_-63" value="&lt;font style=&quot;color: light-dark(rgb(0, 0, 0), rgb(204, 0, 0));&quot;&gt;*parent&lt;/font&gt;" style="rounded=0;whiteSpace=wrap;html=1;fillColor=#0050ef;fontColor=#ffffff;strokeColor=#001DBC;" vertex="1" parent="1">
          <mxGeometry x="-40" y="640" width="200" height="40" as="geometry" />
        </mxCell>
        <mxCell id="Pr255XUGISF5RP6_E8v_-64" value="Process E" style="rounded=0;whiteSpace=wrap;html=1;fillColor=#0050ef;fontColor=#ffffff;strokeColor=#001DBC;" vertex="1" parent="1">
          <mxGeometry x="680" y="960" width="200" height="40" as="geometry" />
        </mxCell>
        <mxCell id="Pr255XUGISF5RP6_E8v_-65" value="" style="rounded=0;whiteSpace=wrap;html=1;fillColor=#0050ef;fontColor=#ffffff;strokeColor=#001DBC;" vertex="1" parent="1">
          <mxGeometry x="680" y="1000" width="200" height="80" as="geometry" />
        </mxCell>
        <mxCell id="Pr255XUGISF5RP6_E8v_-66" value="&lt;font style=&quot;color: light-dark(rgb(0, 0, 0), rgb(0, 0, 255));&quot;&gt;next&lt;/font&gt;" style="shape=partialRectangle;whiteSpace=wrap;html=1;left=0;right=0;fillColor=#0050ef;strokeColor=#001DBC;fontColor=#ffffff;" vertex="1" parent="1">
          <mxGeometry x="680" y="1120" width="100" height="40" as="geometry" />
        </mxCell>
        <mxCell id="Pr255XUGISF5RP6_E8v_-67" value="" style="line;strokeWidth=1;direction=south;html=1;" vertex="1" parent="1">
          <mxGeometry x="670" y="1120" width="20" height="40" as="geometry" />
        </mxCell>
        <mxCell id="Pr255XUGISF5RP6_E8v_-68" value="" style="line;strokeWidth=1;direction=south;html=1;dashed=1;" vertex="1" parent="1">
          <mxGeometry x="770" y="1120" width="20" height="40" as="geometry" />
        </mxCell>
        <mxCell id="Pr255XUGISF5RP6_E8v_-69" value="&lt;font style=&quot;color: light-dark(rgb(0, 0, 0), rgb(0, 0, 255));&quot;&gt;prev&lt;/font&gt;" style="shape=partialRectangle;whiteSpace=wrap;html=1;left=0;right=0;fillColor=#0050ef;fontColor=#ffffff;strokeColor=#001DBC;" vertex="1" parent="1">
          <mxGeometry x="780" y="1120" width="100" height="40" as="geometry" />
        </mxCell>
        <mxCell id="Pr255XUGISF5RP6_E8v_-70" value="" style="line;strokeWidth=1;direction=south;html=1;" vertex="1" parent="1">
          <mxGeometry x="870" y="1120" width="20" height="40" as="geometry" />
        </mxCell>
        <mxCell id="Pr255XUGISF5RP6_E8v_-71" value="&lt;font style=&quot;color: light-dark(rgb(0, 0, 0), rgb(255, 255, 255));&quot;&gt;tasks&lt;/font&gt;" style="text;html=1;align=center;verticalAlign=middle;whiteSpace=wrap;rounded=0;" vertex="1" parent="1">
          <mxGeometry x="750" y="1125" width="60" height="30" as="geometry" />
        </mxCell>
        <mxCell id="Pr255XUGISF5RP6_E8v_-72" value="&lt;font style=&quot;color: light-dark(rgb(0, 0, 0), rgb(0, 255, 0));&quot;&gt;next&lt;/font&gt;" style="shape=partialRectangle;whiteSpace=wrap;html=1;left=0;right=0;fillColor=#0050ef;fontColor=#ffffff;strokeColor=#001DBC;" vertex="1" parent="1">
          <mxGeometry x="680" y="1160" width="100" height="40" as="geometry" />
        </mxCell>
        <mxCell id="Pr255XUGISF5RP6_E8v_-73" value="" style="line;strokeWidth=1;direction=south;html=1;" vertex="1" parent="1">
          <mxGeometry x="670" y="1160" width="20" height="40" as="geometry" />
        </mxCell>
        <mxCell id="Pr255XUGISF5RP6_E8v_-74" value="" style="line;strokeWidth=1;direction=south;html=1;dashed=1;" vertex="1" parent="1">
          <mxGeometry x="770" y="1160" width="20" height="40" as="geometry" />
        </mxCell>
        <mxCell id="Pr255XUGISF5RP6_E8v_-75" value="&lt;font style=&quot;color: light-dark(rgb(0, 0, 0), rgb(0, 255, 0));&quot;&gt;prev&lt;/font&gt;" style="shape=partialRectangle;whiteSpace=wrap;html=1;left=0;right=0;fillColor=#0050ef;fontColor=#ffffff;strokeColor=#001DBC;" vertex="1" parent="1">
          <mxGeometry x="780" y="1160" width="100" height="40" as="geometry" />
        </mxCell>
        <mxCell id="Pr255XUGISF5RP6_E8v_-76" value="" style="line;strokeWidth=1;direction=south;html=1;" vertex="1" parent="1">
          <mxGeometry x="870" y="1160" width="20" height="40" as="geometry" />
        </mxCell>
        <mxCell id="Pr255XUGISF5RP6_E8v_-77" value="children" style="text;html=1;align=center;verticalAlign=middle;whiteSpace=wrap;rounded=0;" vertex="1" parent="1">
          <mxGeometry x="750" y="1165" width="60" height="30" as="geometry" />
        </mxCell>
        <mxCell id="Pr255XUGISF5RP6_E8v_-78" value="&lt;font style=&quot;color: light-dark(rgb(0, 0, 0), rgb(127, 0, 255));&quot;&gt;next&lt;/font&gt;" style="shape=partialRectangle;whiteSpace=wrap;html=1;left=0;right=0;fillColor=#0050ef;fontColor=#ffffff;strokeColor=#001DBC;" vertex="1" parent="1">
          <mxGeometry x="680" y="1200" width="100" height="40" as="geometry" />
        </mxCell>
        <mxCell id="Pr255XUGISF5RP6_E8v_-79" value="" style="line;strokeWidth=1;direction=south;html=1;" vertex="1" parent="1">
          <mxGeometry x="670" y="1200" width="20" height="40" as="geometry" />
        </mxCell>
        <mxCell id="Pr255XUGISF5RP6_E8v_-80" value="" style="line;strokeWidth=1;direction=south;html=1;dashed=1;" vertex="1" parent="1">
          <mxGeometry x="770" y="1200" width="20" height="40" as="geometry" />
        </mxCell>
        <mxCell id="Pr255XUGISF5RP6_E8v_-81" value="&lt;font style=&quot;color: light-dark(rgb(0, 0, 0), rgb(127, 0, 255));&quot;&gt;prev&lt;/font&gt;" style="shape=partialRectangle;whiteSpace=wrap;html=1;left=0;right=0;fillColor=#0050ef;fontColor=#ffffff;strokeColor=#001DBC;" vertex="1" parent="1">
          <mxGeometry x="780" y="1200" width="100" height="40" as="geometry" />
        </mxCell>
        <mxCell id="Pr255XUGISF5RP6_E8v_-82" value="" style="line;strokeWidth=1;direction=south;html=1;" vertex="1" parent="1">
          <mxGeometry x="870" y="1200" width="20" height="40" as="geometry" />
        </mxCell>
        <mxCell id="Pr255XUGISF5RP6_E8v_-83" value="sibling" style="text;html=1;align=center;verticalAlign=middle;whiteSpace=wrap;rounded=0;" vertex="1" parent="1">
          <mxGeometry x="750" y="1205" width="60" height="30" as="geometry" />
        </mxCell>
        <mxCell id="Pr255XUGISF5RP6_E8v_-84" value="&lt;font style=&quot;color: light-dark(rgb(0, 0, 0), rgb(204, 0, 0));&quot;&gt;*parent&lt;/font&gt;" style="rounded=0;whiteSpace=wrap;html=1;fillColor=#0050ef;fontColor=#ffffff;strokeColor=#001DBC;" vertex="1" parent="1">
          <mxGeometry x="680" y="1080" width="200" height="40" as="geometry" />
        </mxCell>
      </root>
    </mxGraphModel>
  </diagram>
</mxfile>
